<?xml version="1.0" encoding="UTF-8" standalone="no"?><!DOCTYPE svg PUBLIC "-//W3C//DTD SVG 1.1//EN" "http://www.w3.org/Graphics/SVG/1.1/DTD/svg11.dtd"><svg width="12px" height="12px" version="1.1" xmlns="http://www.w3.org/2000/svg" xmlns:xlink="http://www.w3.org/1999/xlink" xml:space="preserve" xmlns:serif="http://www.serif.com/" style="fill-rule:evenodd;clip-rule:evenodd;stroke-linejoin:round;stroke-miterlimit:2;"><rect id="a-serif" x="0.047" y="0.047" width="11.953" height="11.953" style="fill:none;"/><clipPath id="_clip1"><rect x="0.047" y="0.047" width="11.953" height="11.953"/></clipPath><g clip-path="url(#_clip1)"><g id="a-serif1" serif:id="a-serif"><path d="M3.172,8.864l-0.225,0.583c-0.161,0.411 -0.242,0.701 -0.242,0.869c-0,0.284 0.095,0.483 0.286,0.596c0.19,0.113 0.502,0.17 0.935,0.17l-0,0.965l-3.879,-0l-0,-0.965c0.739,-0 1.359,-0.632 1.861,-1.896l3.611,-9.139l1.013,-0l3.679,9.13c0.364,0.905 0.693,1.448 0.987,1.631c0.295,0.182 0.578,0.274 0.849,0.274l-0,0.965l-5.827,-0l-0,-0.965c0.525,-0 0.851,-0.051 0.978,-0.153c0.127,-0.101 0.191,-0.23 0.191,-0.387c-0,-0.139 -0.052,-0.321 -0.156,-0.547l-0.113,-0.27l-0.337,-0.861l-3.611,0Zm0.373,-1l2.848,0l-1.463,-3.522l-1.385,3.522Z" style="fill:#fff;fill-rule:nonzero;"/></g></g></svg>