<svg width="48" height="48" viewBox="0 0 48 48" fill="none" xmlns="http://www.w3.org/2000/svg">
<circle cx="24" cy="24" r="24" fill="#D5D5D5"/>
<g clip-path="url(#clip0_5481_51635)">
<path fill-rule="evenodd" clip-rule="evenodd" d="M33.4563 15.2489C33.8079 15.6005 34.0055 16.0774 34.0055 16.5747V29.231C34.0055 29.7282 33.8079 30.2052 33.4563 30.5568C33.1047 30.9084 32.6278 31.106 32.1305 31.106H25.518L20.918 35.156C20.7805 35.247 20.6214 35.3001 20.4568 35.3099C20.2922 35.3198 20.1279 35.2861 19.9805 35.2122C19.829 35.1338 19.7019 35.0155 19.6127 34.8701C19.5235 34.7247 19.4756 34.5578 19.4742 34.3872V31.106H15.8805C15.3912 31.1061 14.9213 30.915 14.571 30.5735C14.2207 30.2319 14.0177 29.7669 14.0055 29.2778V16.5747C14.0055 16.0774 14.203 15.6005 14.5547 15.2489C14.9063 14.8973 15.3832 14.6997 15.8805 14.6997H32.1305C32.6278 14.6997 33.1047 14.8973 33.4563 15.2489ZM24.0017 24.4315C24.8644 24.4315 25.5637 23.7321 25.5637 22.8694C25.5637 22.0068 24.8644 21.3074 24.0017 21.3074C23.139 21.3074 22.4397 22.0068 22.4397 22.8694C22.4397 23.7321 23.139 24.4315 24.0017 24.4315ZM19.278 24.4315C20.1407 24.4315 20.84 23.7321 20.84 22.8695C20.84 22.0068 20.1407 21.3074 19.278 21.3074C18.4153 21.3074 17.716 22.0068 17.716 22.8695C17.716 23.7321 18.4153 24.4315 19.278 24.4315ZM30.2875 22.8694C30.2875 23.7321 29.5881 24.4315 28.7254 24.4315C27.8628 24.4315 27.1634 23.7321 27.1634 22.8694C27.1634 22.0068 27.8628 21.3074 28.7254 21.3074C29.5881 21.3074 30.2875 22.0068 30.2875 22.8694Z" fill="#FAFAFA"/>
</g>
<defs>
<clipPath id="clip0_5481_51635">
<rect width="32" height="32" fill="white" transform="translate(8 8)"/>
</clipPath>
</defs>
</svg>
