<svg width="20" height="21" viewBox="0 0 20 21" fill="none" xmlns="http://www.w3.org/2000/svg">
<g clip-path="url(#clip0_5590_19216)">
<path fill-rule="evenodd" clip-rule="evenodd" d="M18.0332 2.85913C18.3321 3.15802 18.5 3.5634 18.5 3.98608V14.7439C18.5 15.1666 18.3321 15.572 18.0332 15.8708C17.7343 16.1697 17.3289 16.3376 16.9063 16.3376H11.2856L7.37562 19.7801C7.25874 19.8575 7.12352 19.9026 6.98361 19.911C6.8437 19.9194 6.70405 19.8908 6.57875 19.828C6.45002 19.7613 6.34192 19.6607 6.26609 19.5372C6.19027 19.4136 6.14959 19.2717 6.14844 19.1267V16.3376H3.09375C2.67787 16.3378 2.27842 16.1753 1.98065 15.885C1.68289 15.5947 1.5104 15.1995 1.5 14.7837V3.98608C1.5 3.5634 1.66791 3.15802 1.9668 2.85913C2.26568 2.56025 2.67106 2.39233 3.09375 2.39233H16.9063C17.3289 2.39233 17.7343 2.56025 18.0332 2.85913ZM9.99678 10.6643C10.7301 10.6643 11.3245 10.0699 11.3245 9.3366C11.3245 8.60333 10.7301 8.00889 9.99678 8.00889C9.2635 8.00889 8.66907 8.60333 8.66907 9.3366C8.66907 10.0699 9.2635 10.6643 9.99678 10.6643ZM5.98163 10.6643C6.7149 10.6643 7.30934 10.0699 7.30934 9.33662C7.30934 8.60334 6.7149 8.0089 5.98163 8.0089C5.24835 8.0089 4.65391 8.60334 4.65391 9.33662C4.65391 10.0699 5.24835 10.6643 5.98163 10.6643ZM15.3397 9.3366C15.3397 10.0699 14.7452 10.6643 14.012 10.6643C13.2787 10.6643 12.6842 10.0699 12.6842 9.3366C12.6842 8.60333 13.2787 8.00889 14.012 8.00889C14.7452 8.00889 15.3397 8.60333 15.3397 9.3366Z" fill="white" fill-opacity="0.42"/>
</g>
<defs>
<clipPath id="clip0_5590_19216">
<rect width="20" height="20" fill="white" transform="translate(0 0.152344)"/>
</clipPath>
</defs>
</svg>
