<svg width="20" height="21" viewBox="0 0 20 21" fill="none" xmlns="http://www.w3.org/2000/svg">
<g clip-path="url(#clip0_5590_19512)">
<path fill-rule="evenodd" clip-rule="evenodd" d="M18.0332 2.93909C18.3321 3.23797 18.5 3.64335 18.5 4.06604V14.8239C18.5 15.2465 18.3321 15.6519 18.0332 15.9508C17.7343 16.2497 17.3289 16.4176 16.9062 16.4176H11.2856L7.37562 19.8601C7.25874 19.9374 7.12352 19.9826 6.98361 19.991C6.8437 19.9994 6.70405 19.9707 6.57875 19.9079C6.45002 19.8412 6.34192 19.7407 6.26609 19.6171C6.19027 19.4936 6.14959 19.3516 6.14844 19.2067V16.4176H3.09375C2.67787 16.4177 2.27842 16.2553 1.98065 15.965C1.68289 15.6747 1.5104 15.2794 1.5 14.8637V4.06604C1.5 3.64335 1.66791 3.23797 1.9668 2.93909C2.26568 2.6402 2.67106 2.47229 3.09375 2.47229H16.9062C17.3289 2.47229 17.7343 2.6402 18.0332 2.93909ZM9.99678 10.7443C10.7301 10.7443 11.3245 10.1498 11.3245 9.41656C11.3245 8.68328 10.7301 8.08885 9.99678 8.08885C9.2635 8.08885 8.66907 8.68328 8.66907 9.41656C8.66907 10.1498 9.2635 10.7443 9.99678 10.7443ZM5.98163 10.7443C6.7149 10.7443 7.30934 10.1498 7.30934 9.41657C7.30934 8.6833 6.7149 8.08886 5.98163 8.08886C5.24835 8.08886 4.65391 8.6833 4.65391 9.41657C4.65391 10.1498 5.24835 10.7443 5.98163 10.7443ZM15.3397 9.41656C15.3397 10.1498 14.7452 10.7443 14.012 10.7443C13.2787 10.7443 12.6842 10.1498 12.6842 9.41656C12.6842 8.68328 13.2787 8.08885 14.012 8.08885C14.7452 8.08885 15.3397 8.68328 15.3397 9.41656Z" fill="black" fill-opacity="0.42"/>
</g>
<defs>
<clipPath id="clip0_5590_19512">
<rect width="20" height="20" fill="white" transform="translate(0 0.2323)"/>
</clipPath>
</defs>
</svg>
