<svg width="21" height="20" viewBox="0 0 21 20" fill="none" xmlns="http://www.w3.org/2000/svg">
<path d="M6.98145 14.0202C8.07981 14.0202 8.97021 13.1298 8.97021 12.0314C8.97021 10.933 8.07981 10.0426 6.98145 10.0426M6.98145 14.0202C5.88308 14.0202 4.99268 13.1298 4.99268 12.0314C4.99268 10.933 5.88308 10.0426 6.98145 10.0426M6.98145 14.0202V16.5828M6.98145 10.0426V3.4173M13.5822 5.97988C14.6805 5.97988 15.5709 6.87029 15.5709 7.96865C15.5709 9.06702 14.6805 9.95742 13.5822 9.95742M13.5822 5.97988C12.4838 5.97988 11.5934 6.87029 11.5934 7.96865C11.5934 9.06702 12.4838 9.95742 13.5822 9.95742M13.5822 5.97988V3.4173M13.5822 9.95742V16.5828" stroke="white" stroke-width="2" stroke-linecap="round"/>
</svg>
