<svg width="20" height="21" viewBox="0 0 20 21" fill="none" xmlns="http://www.w3.org/2000/svg">
<path fill-rule="evenodd" clip-rule="evenodd" d="M2.33301 4.31616C2.33301 3.76388 2.78072 3.31616 3.33301 3.31616H16.6663C17.2186 3.31616 17.6663 3.76388 17.6663 4.31616C17.6663 4.86845 17.2186 5.31616 16.6663 5.31616H3.33301C2.78072 5.31616 2.33301 4.86845 2.33301 4.31616ZM6.77734 10.9841C6.77734 10.4318 7.22506 9.98413 7.77734 9.98413H12.2218C12.7741 9.98413 13.2218 10.4318 13.2218 10.9841C13.2218 11.5364 12.7741 11.9841 12.2218 11.9841H7.77734C7.22506 11.9841 6.77734 11.5364 6.77734 10.9841ZM5.55566 16.6521C5.00337 16.6521 4.55566 17.0998 4.55566 17.6521C4.55567 18.2044 5.00339 18.6521 5.55567 18.6521L14.4446 18.652C14.9968 18.652 15.4446 18.2043 15.4446 17.652C15.4445 17.0997 14.9968 16.652 14.4445 16.652L5.55566 16.6521Z" fill="black"/>
</svg>
