<svg width="20" height="21" viewBox="0 0 20 21" fill="none" xmlns="http://www.w3.org/2000/svg">
<path fill-rule="evenodd" clip-rule="evenodd" d="M2.33301 4.20898C2.33301 3.6567 2.78072 3.20898 3.33301 3.20898H16.6663C17.2186 3.20898 17.6663 3.6567 17.6663 4.20898C17.6663 4.76127 17.2186 5.20898 16.6663 5.20898H3.33301C2.78072 5.20898 2.33301 4.76127 2.33301 4.20898ZM2.33301 10.877C2.33301 10.3247 2.78072 9.87695 3.33301 9.87695H7.77745C8.32974 9.87695 8.77745 10.3247 8.77745 10.877C8.77745 11.4292 8.32974 11.877 7.77745 11.877H3.33301C2.78072 11.877 2.33301 11.4292 2.33301 10.877ZM3.33301 16.545C2.78073 16.545 2.33301 16.9927 2.33301 17.545C2.333 18.0973 2.78072 18.545 3.333 18.545L12.2219 18.545C12.7742 18.545 13.2219 18.0973 13.2219 17.545C13.2219 16.9928 12.7742 16.545 12.2219 16.545L3.33301 16.545Z" fill="white"/>
</svg>
