<svg width="20" height="21" viewBox="0 0 20 21" fill="none" xmlns="http://www.w3.org/2000/svg">
<path fill-rule="evenodd" clip-rule="evenodd" d="M2.33301 4.31616C2.33301 3.76388 2.78072 3.31616 3.33301 3.31616H16.6663C17.2186 3.31616 17.6663 3.76388 17.6663 4.31616C17.6663 4.86845 17.2186 5.31616 16.6663 5.31616H3.33301C2.78072 5.31616 2.33301 4.86845 2.33301 4.31616ZM2.33301 10.9841C2.33301 10.4318 2.78072 9.98413 3.33301 9.98413H7.77745C8.32974 9.98413 8.77745 10.4318 8.77745 10.9841C8.77745 11.5364 8.32974 11.9841 7.77745 11.9841H3.33301C2.78072 11.9841 2.33301 11.5364 2.33301 10.9841ZM3.33301 16.6522C2.78073 16.6522 2.33301 17.0999 2.33301 17.6522C2.333 18.2044 2.78072 18.6522 3.333 18.6522L12.2219 18.6522C12.7742 18.6522 13.2219 18.2045 13.2219 17.6522C13.2219 17.0999 12.7742 16.6522 12.2219 16.6522L3.33301 16.6522Z" fill="black"/>
</svg>
