<svg width="20" height="21" viewBox="0 0 20 21" fill="none" xmlns="http://www.w3.org/2000/svg">
<path fill-rule="evenodd" clip-rule="evenodd" d="M2.33301 4.20898C2.33301 3.6567 2.78072 3.20898 3.33301 3.20898H16.6663C17.2186 3.20898 17.6663 3.6567 17.6663 4.20898C17.6663 4.76127 17.2186 5.20898 16.6663 5.20898H3.33301C2.78072 5.20898 2.33301 4.76127 2.33301 4.20898ZM11.2217 10.877C11.2217 10.3247 11.6694 9.87695 12.2217 9.87695H16.6661C17.2184 9.87695 17.6661 10.3247 17.6661 10.877C17.6661 11.4292 17.2184 11.877 16.6661 11.877H12.2217C11.6694 11.877 11.2217 11.4292 11.2217 10.877ZM7.77734 16.5449C7.22505 16.5449 6.77734 16.9926 6.77734 17.5449C6.77735 18.0972 7.22507 18.5449 7.77735 18.5449L16.6662 18.5449C17.2185 18.5449 17.6662 18.0971 17.6662 17.5449C17.6662 16.9926 17.2185 16.5449 16.6662 16.5449L7.77734 16.5449Z" fill="white"/>
</svg>
