<svg width="20" height="21" viewBox="0 0 20 21" fill="none" xmlns="http://www.w3.org/2000/svg">
<path fill-rule="evenodd" clip-rule="evenodd" d="M2.33301 4.20898C2.33301 3.6567 2.78072 3.20898 3.33301 3.20898H16.6663C17.2186 3.20898 17.6663 3.6567 17.6663 4.20898C17.6663 4.76127 17.2186 5.20898 16.6663 5.20898H3.33301C2.78072 5.20898 2.33301 4.76127 2.33301 4.20898ZM6.77734 10.877C6.77734 10.3247 7.22506 9.87695 7.77734 9.87695H12.2218C12.7741 9.87695 13.2218 10.3247 13.2218 10.877C13.2218 11.4292 12.7741 11.877 12.2218 11.877H7.77734C7.22506 11.877 6.77734 11.4292 6.77734 10.877ZM5.55566 16.5449C5.00337 16.5449 4.55566 16.9926 4.55566 17.5449C4.55567 18.0972 5.00339 18.5449 5.55567 18.5449L14.4446 18.5449C14.9968 18.5449 15.4446 18.0971 15.4446 17.5449C15.4445 16.9926 14.9968 16.5449 14.4445 16.5449L5.55566 16.5449Z" fill="white"/>
</svg>
