<svg width="20" height="21" viewBox="0 0 20 21" fill="none" xmlns="http://www.w3.org/2000/svg">
<path fill-rule="evenodd" clip-rule="evenodd" d="M2.33301 4.31616C2.33301 3.76388 2.78072 3.31616 3.33301 3.31616H16.6663C17.2186 3.31616 17.6663 3.76388 17.6663 4.31616C17.6663 4.86845 17.2186 5.31616 16.6663 5.31616H3.33301C2.78072 5.31616 2.33301 4.86845 2.33301 4.31616ZM11.2217 10.9841C11.2217 10.4318 11.6694 9.98413 12.2217 9.98413H16.6661C17.2184 9.98413 17.6661 10.4318 17.6661 10.9841C17.6661 11.5364 17.2184 11.9841 16.6661 11.9841H12.2217C11.6694 11.9841 11.2217 11.5364 11.2217 10.9841ZM7.77734 16.6521C7.22505 16.6521 6.77734 17.0998 6.77734 17.6521C6.77735 18.2044 7.22507 18.6521 7.77735 18.6521L16.6662 18.652C17.2185 18.652 17.6662 18.2043 17.6662 17.652C17.6662 17.0997 17.2185 16.652 16.6662 16.652L7.77734 16.6521Z" fill="black"/>
</svg>
