<svg width="60" height="60" viewBox="0 0 60 60" fill="none" xmlns="http://www.w3.org/2000/svg">
    <path
        d="M60 0.999996C60 0.447711 59.5523 -3.86298e-06 59 -3.8147e-06C58.4477 -3.76641e-06 58 0.447712 58 0.999996L60 0.999996ZM7.29289 51.2929C6.90237 51.6834 6.90237 52.3166 7.29289 52.7071L13.6569 59.0711C14.0474 59.4616 14.6805 59.4616 15.0711 59.0711C15.4616 58.6805 15.4616 58.0474 15.0711 57.6569L9.41421 52L15.0711 46.3431C15.4616 45.9526 15.4616 45.3195 15.0711 44.9289C14.6805 44.5384 14.0474 44.5384 13.6569 44.9289L7.29289 51.2929ZM58 0.999996C58 16.4044 52.4596 28.8872 43.4768 37.5209C34.4879 46.1604 21.9944 51 8 51L8 53C22.4582 53 35.4647 47.9955 44.8627 38.9628C54.2667 29.9244 60 16.9073 60 0.999996L58 0.999996Z"
        fill="#1AC6FF" />
</svg>