<svg width="51" height="26" viewBox="0 0 51 26" fill="none" xmlns="http://www.w3.org/2000/svg">
    <path
        d="M7.00001 17.9968C6.99822 18.5491 7.44449 18.9982 7.99677 19L16.9967 19.0291C17.549 19.0309 17.9982 18.5846 17.9999 18.0323C18.0017 17.48 17.5555 17.0309 17.0032 17.0291L9.00323 17.0032L9.02907 9.00328C9.03085 8.451 8.58459 8.00184 8.0323 8.00005C7.48002 7.99827 7.03086 8.44453 7.02908 8.99682L7.00001 17.9968ZM49.2311 2C49.7833 2 50.2311 1.55228 50.2311 1C50.2311 0.447715 49.7833 0 49.2311 0V2ZM8.70482 18.7094C19.1007 8.38044 33.4198 2 49.2311 2V0C32.8705 0 18.0505 6.60457 7.29518 17.2906L8.70482 18.7094Z"
        fill="#1AC6FF" />
</svg>