<svg width="26" height="50" viewBox="0 0 26 50" fill="none" xmlns="http://www.w3.org/2000/svg">
    <path
        d="M18.2722 43.5C18.8245 43.4982 19.2707 43.0491 19.2689 42.4968L19.2399 33.4968C19.2381 32.9445 18.7889 32.4983 18.2366 32.5001C17.6844 32.5018 17.2381 32.951 17.2399 33.5033L17.2657 41.5032L9.26576 41.5291C8.71347 41.5309 8.26721 41.98 8.26899 42.5323C8.27078 43.0846 8.71994 43.5309 9.27222 43.5291L18.2722 43.5ZM2 1C2 0.447715 1.55228 0 1 0C0.447715 0 0 0.447715 0 1H2ZM18.9738 41.7906C8.48941 31.3738 2 16.9457 2 1H0C0 17.4998 6.71739 32.4325 17.5641 43.2094L18.9738 41.7906Z"
        fill="#1AC6FF" />
</svg>