<svg width="26" height="50" viewBox="0 0 26 50" fill="none" xmlns="http://www.w3.org/2000/svg">
    <path
        d="M8.00332 43.2131C7.45104 43.2149 7.00188 42.7686 7.0001 42.2164L6.97102 33.2164C6.96924 32.6641 7.41551 32.215 7.96779 32.2132C8.52007 32.2114 8.96923 32.6577 8.97101 33.21L8.99686 41.2099L16.9968 41.1841C17.5491 41.1823 17.9983 41.6285 18 42.1808C18.0018 42.7331 17.5556 43.1823 17.0033 43.1841L8.00332 43.2131ZM23.9927 1.00006C23.9927 0.447776 24.4404 6.10231e-05 24.9927 6.10352e-05C25.545 6.10472e-05 25.9927 0.447776 25.9927 1.00006L23.9927 1.00006ZM7.2907 41.5083C17.6151 31.117 23.9927 16.8043 23.9927 1.00006L25.9927 1.00006C25.9927 17.3537 19.3909 32.1673 8.70948 42.918L7.2907 41.5083Z"
        fill="#1AC6FF" />
</svg>