<svg width="60" height="60" viewBox="0 0 60 60" fill="none" xmlns="http://www.w3.org/2000/svg">
    <path
        d="M1 60C0.447717 60 1.28716e-06 59.5523 1.3113e-06 59C1.33544e-06 58.4477 0.447717 58 1 58L1 60ZM51.2929 7.29289C51.6834 6.90237 52.3166 6.90237 52.7071 7.29289L59.0711 13.6569C59.4616 14.0474 59.4616 14.6805 59.0711 15.0711C58.6805 15.4616 58.0474 15.4616 57.6569 15.0711L52 9.41421L46.3431 15.0711C45.9526 15.4616 45.3195 15.4616 44.9289 15.0711C44.5384 14.6805 44.5384 14.0474 44.9289 13.6569L51.2929 7.29289ZM1 58C16.4044 58 28.8872 52.4596 37.5209 43.4768C46.1604 34.4879 51 21.9944 51 8L53 8C53 22.4582 47.9955 35.4647 38.9628 44.8627C29.9244 54.2667 16.9073 60 1 60L1 58Z"
        fill="#1AC6FF" />
</svg>