<svg width="50" height="26" viewBox="0 0 50 26" fill="none" xmlns="http://www.w3.org/2000/svg">
    <path
        d="M43.2311 8.00323C43.2328 7.45095 42.7866 7.00179 42.2343 7.00001L33.2343 6.97093C32.6821 6.96915 32.2329 7.41541 32.2311 7.96769C32.2293 8.51998 32.6756 8.96914 33.2279 8.97092L41.2278 8.99676L41.202 16.9967C41.2002 17.549 41.6465 17.9982 42.1988 17.9999C42.751 18.0017 43.2002 17.5555 43.202 17.0032L43.2311 8.00323ZM1 24C0.447715 24 0 24.4477 0 25C0 25.5523 0.447715 26 1 26V24ZM41.5262 7.29061C31.1303 17.6196 16.8113 24 1 24V26C17.3606 26 32.1806 19.3954 42.9359 8.70939L41.5262 7.29061Z"
        fill="#1AC6FF" />
</svg>