<svg width="60" height="60" viewBox="0 0 60 60" fill="none" xmlns="http://www.w3.org/2000/svg">
    <path
        d="M59 6.68784e-06C59.5523 6.76027e-06 60 0.447722 60 1.00001C60 1.55229 59.5523 2.00001 59 2.00001L59 6.68784e-06ZM8.7071 52.7071C8.31658 53.0976 7.68341 53.0976 7.29289 52.7071L0.928926 46.3431C0.538402 45.9526 0.538402 45.3195 0.928926 44.9289C1.31945 44.5384 1.95262 44.5384 2.34314 44.9289L7.99999 50.5858L13.6568 44.9289C14.0474 44.5384 14.6805 44.5384 15.0711 44.9289C15.4616 45.3195 15.4616 45.9526 15.0711 46.3431L8.7071 52.7071ZM59 2.00001C43.5956 2 31.1128 7.54038 22.4791 16.5232C13.8396 25.5121 9 38.0056 8.99999 52L6.99999 52C7 37.5418 12.0045 24.5353 21.0372 15.1373C30.0756 5.73331 43.0927 4.60186e-06 59 6.68784e-06L59 2.00001Z"
        fill="#1AC6FF" />
</svg>