<svg width="50" height="26" viewBox="0 0 50 26" fill="none" xmlns="http://www.w3.org/2000/svg">
    <path
        d="M43.4819 18.2647C43.4801 18.817 43.031 19.2633 42.4787 19.2615L33.4788 19.2324C32.9265 19.2306 32.4802 18.7815 32.482 18.2292C32.4838 17.6769 32.9329 17.2306 33.4852 17.2324L41.4852 17.2582L41.511 9.25829C41.5128 8.70601 41.962 8.25974 42.5142 8.26153C43.0665 8.26331 43.5128 8.71247 43.511 9.26475L43.4819 18.2647ZM1.00004 2.00006C0.447754 2.00006 3.85122e-05 1.55235 3.85242e-05 1.00006C3.85363e-05 0.447777 0.447754 6.20238e-05 1.00004 6.20359e-05L1.00004 2.00006ZM41.7725 18.9663C31.3603 8.4866 16.9386 2.00006 1.00004 2.00006L1.00004 6.20359e-05C17.4927 6.23963e-05 32.4191 6.71458 43.1913 17.5567L41.7725 18.9663Z"
        fill="#1AC6FF" />
</svg>