<svg width="60" height="60" viewBox="0 0 60 60" fill="none" xmlns="http://www.w3.org/2000/svg">
    <path
        d="M59 60C59.5523 60 60 59.5523 60 59C60 58.4477 59.5523 58 59 58L59 60ZM8.70711 7.29289C8.31658 6.90237 7.68342 6.90237 7.29289 7.29289L0.928932 13.6569C0.538408 14.0474 0.538408 14.6805 0.928932 15.0711C1.31946 15.4616 1.95262 15.4616 2.34315 15.0711L8 9.41421L13.6569 15.0711C14.0474 15.4616 14.6805 15.4616 15.0711 15.0711C15.4616 14.6805 15.4616 14.0474 15.0711 13.6568L8.70711 7.29289ZM59 58C43.5956 58 31.1128 52.4596 22.4791 43.4768C13.8397 34.4879 9 21.9944 9 8L7 8C7 22.4582 12.0045 35.4647 21.0372 44.8627C30.0756 54.2667 43.0927 60 59 60L59 58Z"
        fill="#1AC6FF" />
</svg>