<svg width="27" height="50" viewBox="0 0 27 50" fill="none" xmlns="http://www.w3.org/2000/svg">
    <path
        d="M7.99677 7.00001C7.44449 7.00179 6.99822 7.45095 7.00001 8.00323L7.02908 17.0032C7.03086 17.5555 7.48002 18.0017 8.0323 17.9999C8.58459 17.9982 9.03085 17.549 9.02907 16.9967L9.00323 8.99676L17.0032 8.97092C17.5555 8.96914 18.0017 8.51998 17.9999 7.9677C17.9982 7.41541 17.549 6.96915 16.9967 6.97093L7.99677 7.00001ZM24.0609 49C24.0609 49.5523 24.5086 50 25.0609 50C25.6132 50 26.0609 49.5523 26.0609 49H24.0609ZM7.29518 8.70939C17.651 18.9985 24.0609 33.2498 24.0609 49H26.0609C26.0609 32.6957 19.4231 17.9398 8.70482 7.29061L7.29518 8.70939Z"
        fill="#1AC6FF" />
</svg>