<svg width="60" height="60" viewBox="0 0 60 60" fill="none" xmlns="http://www.w3.org/2000/svg">
    <path
        d="M1 6.68784e-06C0.447716 6.76027e-06 1.23888e-06 0.447722 1.3113e-06 1.00001C1.38373e-06 1.55229 0.447717 2.00001 1 2.00001L1 6.68784e-06ZM51.2929 52.7071C51.6834 53.0976 52.3166 53.0976 52.7071 52.7071L59.0711 46.3431C59.4616 45.9526 59.4616 45.3195 59.0711 44.9289C58.6805 44.5384 58.0474 44.5384 57.6569 44.9289L52 50.5858L46.3432 44.9289C45.9526 44.5384 45.3195 44.5384 44.9289 44.9289C44.5384 45.3195 44.5384 45.9526 44.9289 46.3431L51.2929 52.7071ZM1 2.00001C16.4044 2 28.8872 7.54038 37.5209 16.5232C46.1604 25.5121 51 38.0056 51 52L53 52C53 37.5418 47.9955 24.5353 38.9628 15.1373C29.9244 5.73331 16.9073 4.60186e-06 1 6.68784e-06L1 2.00001Z"
        fill="#1AC6FF" />
</svg>