<svg width="60" height="60" viewBox="0 0 60 60" fill="none" xmlns="http://www.w3.org/2000/svg">
    <path
        d="M0 59C0 59.5523 0.447715 60 1 60C1.55228 60 2 59.5523 2 59H0ZM52.7071 8.70711C53.0976 8.31658 53.0976 7.68342 52.7071 7.29289L46.3431 0.928932C45.9526 0.538408 45.3195 0.538408 44.9289 0.928932C44.5384 1.31946 44.5384 1.95262 44.9289 2.34315L50.5858 8L44.9289 13.6569C44.5384 14.0474 44.5384 14.6805 44.9289 15.0711C45.3195 15.4616 45.9526 15.4616 46.3431 15.0711L52.7071 8.70711ZM2 59C2 43.5956 7.54037 31.1128 16.5232 22.4791C25.5121 13.8397 38.0056 9 52 9V7C37.5418 7 24.5353 12.0045 15.1373 21.0372C5.73331 30.0756 0 43.0927 0 59H2Z"
        fill="#1AC6FF" />
</svg>