<svg width="26" height="50" viewBox="0 0 26 50" fill="none" xmlns="http://www.w3.org/2000/svg">
    <path
        d="M17.9968 6.78694C18.5491 6.78515 18.9982 7.23142 19 7.7837L19.0291 16.7837C19.0309 17.3359 18.5846 17.7851 18.0323 17.7869C17.48 17.7887 17.0309 17.3424 17.0291 16.7901L17.0032 8.79016L9.00328 8.816C8.451 8.81778 8.00184 8.37152 8.00005 7.81924C7.99827 7.26695 8.44454 6.81779 8.99682 6.81601L17.9968 6.78694ZM2.00742 49C2.00742 49.5523 1.5597 50 1.00742 50C0.455131 50 0.00741576 49.5523 0.00741577 49L2.00742 49ZM18.7094 8.49175C8.38503 18.883 2.00742 33.1958 2.00742 49L0.00741577 49C0.00741613 32.6464 6.60915 17.8328 17.2906 7.08211L18.7094 8.49175Z"
        fill="#1AC6FF" />
</svg>