<svg width="50" height="26" viewBox="0 0 50 26" fill="none" xmlns="http://www.w3.org/2000/svg">
    <path
        d="M6.51811 7.73536C6.51989 7.18308 6.96905 6.73681 7.52134 6.7386L16.5213 6.76767C17.0736 6.76946 17.5198 7.21861 17.5181 7.7709C17.5163 8.32318 17.0671 8.76944 16.5148 8.76766L8.51487 8.74182L8.48903 16.7418C8.48724 17.2941 8.03808 17.7403 7.4858 17.7385C6.93352 17.7368 6.48725 17.2876 6.48904 16.7353L6.51811 7.73536ZM49 24C49.5523 24 50 24.4477 50 25C50 25.5523 49.5523 26 49 26L49 24ZM8.22749 7.03377C18.6397 17.5135 33.0614 24 49 24L49 26C32.5073 26 17.581 19.2855 6.80872 8.44341L8.22749 7.03377Z"
        fill="#1AC6FF" />
</svg>