<svg width="60" height="60" viewBox="0 0 60 60" fill="none" xmlns="http://www.w3.org/2000/svg">
    <path
        d="M60 59C60 59.5523 59.5523 60 59 60C58.4477 60 58 59.5523 58 59H60ZM7.29289 8.70711C6.90237 8.31658 6.90237 7.68342 7.29289 7.29289L13.6569 0.928932C14.0474 0.538408 14.6805 0.538408 15.0711 0.928932C15.4616 1.31946 15.4616 1.95262 15.0711 2.34315L9.41421 8L15.0711 13.6569C15.4616 14.0474 15.4616 14.6805 15.0711 15.0711C14.6805 15.4616 14.0474 15.4616 13.6569 15.0711L7.29289 8.70711ZM58 59C58 43.5956 52.4596 31.1128 43.4768 22.4791C34.4879 13.8397 21.9944 9 8 9V7C22.4582 7 35.4647 12.0045 44.8627 21.0372C54.2667 30.0756 60 43.0927 60 59H58Z"
        fill="#1AC6FF" />
</svg>