<svg width="60" height="60" viewBox="0 0 60 60" fill="none" xmlns="http://www.w3.org/2000/svg">
    <path
        d="M4.45856e-06 1C4.50684e-06 0.447716 0.44772 1.26302e-06 1 1.3113e-06C1.55229 1.35958e-06 2 0.447717 2 1L4.45856e-06 1ZM52.7071 51.2929C53.0976 51.6834 53.0976 52.3166 52.7071 52.7071L46.3431 59.0711C45.9526 59.4616 45.3195 59.4616 44.9289 59.0711C44.5384 58.6805 44.5384 58.0474 44.9289 57.6569L50.5858 52L44.9289 46.3431C44.5384 45.9526 44.5384 45.3195 44.9289 44.9289C45.3195 44.5384 45.9526 44.5384 46.3431 44.9289L52.7071 51.2929ZM2 1C2 16.4044 7.54038 28.8872 16.5232 37.5209C25.5121 46.1604 38.0056 51 52 51L52 53C37.5418 53 24.5353 47.9955 15.1373 38.9628C5.73331 29.9244 3.0679e-06 16.9073 4.45856e-06 1L2 1Z"
        fill="#1AC6FF" />
</svg>