<svg width="20" height="21" viewBox="0 0 20 21" fill="none" xmlns="http://www.w3.org/2000/svg">
<path fill-rule="evenodd" clip-rule="evenodd" d="M11.6121 3.32617C12.6836 3.32617 13.5521 4.19475 13.5521 5.26619V6.37477H15.5702C16.0294 6.37477 16.4017 6.74701 16.4017 7.2062C16.4017 7.66538 16.0294 8.03763 15.5702 8.03763H4.42982C3.97063 8.03763 3.59839 7.66538 3.59839 7.2062C3.59839 6.74701 3.97063 6.37477 4.42982 6.37477H6.34637V5.26619C6.34637 4.19475 7.21494 3.32617 8.28638 3.32617H11.6121ZM8.00924 5.26619C8.00924 5.11312 8.13332 4.98904 8.28638 4.98904H11.6121C11.7652 4.98904 11.8893 5.11312 11.8893 5.26619V6.37477H8.00924V5.26619Z" fill="white"/>
<path d="M5.08166 9.55281C5.19689 9.42119 5.36331 9.3457 5.53824 9.3457H14.4615C14.6364 9.3457 14.8028 9.42119 14.9181 9.55281C15.0333 9.68442 15.0862 9.85936 15.063 10.0328L13.8492 17.9011C13.809 18.2026 13.5518 18.4277 13.2477 18.4277H6.75183C6.44767 18.4277 6.1905 18.2026 6.15031 17.9011L4.93672 10.0328C4.9136 9.85936 4.96644 9.68442 5.08166 9.55281Z" fill="white"/>
</svg>
