<svg width="20" height="21" viewBox="0 0 20 21" fill="none" xmlns="http://www.w3.org/2000/svg">
<path fill-rule="evenodd" clip-rule="evenodd" d="M11.6121 3.43335C12.6836 3.43335 13.5521 4.30192 13.5521 5.37336V6.48194H15.5702C16.0294 6.48194 16.4017 6.85419 16.4017 7.31338C16.4017 7.77256 16.0294 8.14481 15.5702 8.14481H4.42982C3.97063 8.14481 3.59839 7.77256 3.59839 7.31338C3.59839 6.85419 3.97063 6.48194 4.42982 6.48194H6.34637V5.37336C6.34637 4.30192 7.21494 3.43335 8.28638 3.43335H11.6121ZM8.00924 5.37336C8.00924 5.2203 8.13332 5.09622 8.28638 5.09622H11.6121C11.7652 5.09622 11.8893 5.2203 11.8893 5.37336V6.48194H8.00924V5.37336Z" fill="black"/>
<path d="M5.08166 9.65999C5.19689 9.52837 5.36331 9.45288 5.53824 9.45288H14.4615C14.6364 9.45288 14.8028 9.52837 14.9181 9.65999C15.0333 9.7916 15.0862 9.96654 15.063 10.1399L13.8492 18.0083C13.809 18.3098 13.5518 18.5349 13.2477 18.5349H6.75183C6.44767 18.5349 6.1905 18.3098 6.15031 18.0083L4.93672 10.1399C4.9136 9.96654 4.96644 9.7916 5.08166 9.65999Z" fill="black"/>
</svg>
