<svg width="20" height="21" viewBox="0 0 20 21" fill="none" xmlns="http://www.w3.org/2000/svg">
<g clip-path="url(#clip0_2966_23554)">
<path d="M15.305 12.2899L15.325 12.2699L15.165 11.9199C14.815 11.1799 14.285 10.5499 13.625 10.0799C14.005 9.56993 14.275 8.97993 14.405 8.34993C14.585 7.48993 14.505 6.59993 14.175 5.77993C13.845 4.94993 13.275 4.25993 12.545 3.76993C11.795 3.26993 10.935 3.00993 10.065 3.00993H5.41259C4.85259 2.99993 4.40259 3.44993 4.40259 4.00993V17.6699C4.40259 18.2299 4.85259 18.6799 5.41259 18.6799H10.985C12.025 18.6599 13.055 18.2799 13.875 17.6099C14.685 16.9499 15.255 16.0199 15.485 14.9899C15.685 14.0899 15.625 13.1499 15.305 12.2899ZM7.07259 11.8599H10.945C11.485 11.8599 12.025 12.0799 12.405 12.4699C12.795 12.8499 13.015 13.3899 13.015 13.9299C13.015 14.4699 12.795 15.0099 12.405 15.3899C12.015 15.7799 11.485 15.9999 10.945 15.9999H7.06259V11.8599H7.07259ZM11.315 8.66993C10.985 8.99993 10.535 9.17993 10.065 9.17993H7.06259V5.65993H10.055C10.525 5.65993 10.975 5.84993 11.305 6.16993C11.635 6.49993 11.815 6.94993 11.815 7.41993C11.815 7.88993 11.625 8.33993 11.305 8.66993H11.315Z" fill="black"/>
</g>
<defs>
<clipPath id="clip0_2966_23554">
<rect width="20" height="20" fill="white" transform="translate(0 0.984131)"/>
</clipPath>
</defs>
</svg>
