<svg width="20" height="21" viewBox="0 0 20 21" fill="none" xmlns="http://www.w3.org/2000/svg">
<g clip-path="url(#clip0_3247_58706)">
<path d="M15.305 12.2901L15.325 12.2701L15.165 11.9201C14.815 11.1801 14.285 10.5501 13.625 10.0801C14.005 9.57005 14.275 8.98005 14.405 8.35005C14.585 7.49005 14.505 6.60005 14.175 5.78005C13.845 4.95005 13.275 4.26005 12.545 3.77005C11.795 3.27005 10.935 3.01005 10.065 3.01005H5.41259C4.85259 3.00005 4.40259 3.45005 4.40259 4.01005V17.6701C4.40259 18.2301 4.85259 18.6801 5.41259 18.6801H10.985C12.025 18.6601 13.055 18.2801 13.875 17.6101C14.685 16.9501 15.255 16.0201 15.485 14.9901C15.685 14.0901 15.625 13.1501 15.305 12.2901ZM7.07259 11.8601H10.945C11.485 11.8601 12.025 12.0801 12.405 12.4701C12.795 12.8501 13.015 13.3901 13.015 13.9301C13.015 14.4701 12.795 15.0101 12.405 15.3901C12.015 15.7801 11.485 16.0001 10.945 16.0001H7.06259V11.8601H7.07259ZM11.315 8.67005C10.985 9.00005 10.535 9.18005 10.065 9.18005H7.06259V5.66005H10.055C10.525 5.66005 10.975 5.85005 11.305 6.17005C11.635 6.50005 11.815 6.95005 11.815 7.42005C11.815 7.89005 11.625 8.34005 11.305 8.67005H11.315Z" fill="white"/>
</g>
<defs>
<clipPath id="clip0_3247_58706">
<rect width="20" height="20" fill="white" transform="translate(0 0.876953)"/>
</clipPath>
</defs>
</svg>
