<svg width="20" height="21" viewBox="0 0 20 21" fill="none" xmlns="http://www.w3.org/2000/svg">
<path fill-rule="evenodd" clip-rule="evenodd" d="M18.3543 4.03183L16.8452 2.52276C16.651 2.32852 16.3352 2.32819 16.141 2.52276L9.94996 8.7138L12.1629 10.9268L18.3543 4.73607C18.5486 4.54183 18.5489 4.22607 18.3543 4.03183ZM16.3573 14.9659L15.261 14.4177L14.7128 13.3214C14.5355 12.9568 13.9993 12.9571 13.822 13.3214L13.2738 14.4177L12.1774 14.9659C11.8128 15.1432 11.8132 15.6798 12.1774 15.8568L13.2738 16.4049L13.822 17.5013C13.9993 17.8659 14.5355 17.8655 14.7128 17.5013L15.261 16.4049L16.3573 15.8568C16.7216 15.6795 16.7216 15.1429 16.3573 14.9659ZM3.04902 8.75895L1.77502 8.12179C1.41079 7.94448 1.41079 7.40826 1.77502 7.23095L3.04902 6.59378L3.68619 5.31978C3.86349 4.95555 4.39972 4.95555 4.57703 5.31978L5.21419 6.59378L6.48819 7.23095C6.85243 7.40826 6.85243 7.94448 6.48819 8.12179L5.21419 8.75895L4.57703 10.033C4.39972 10.3972 3.86349 10.3972 3.68619 10.033L3.04902 8.75895ZM5.19882 11.4457C3.15285 11.4457 1.5 13.1019 1.5 15.1446V18.8789C1.5 19.1538 1.72312 19.377 1.99805 19.377C3.06353 19.377 4.09747 19.0864 5.00358 18.5349L5.28681 19.1017C5.37114 19.2704 5.54347 19.377 5.73239 19.377C7.77869 19.377 9.43121 17.7205 9.43121 15.6781V14.7468L6.1305 11.4461H5.19915L5.19882 11.4457ZM11.952 12.1254C12.0706 12.2436 12.1214 12.4136 12.0878 12.5776C12.0543 12.7417 11.9404 12.8778 11.785 12.9399L9.81905 13.7261L7.15053 11.0576L7.93677 9.09165C7.99886 8.93626 8.135 8.82237 8.29902 8.78884C8.46271 8.7553 8.63271 8.8061 8.75124 8.92464L11.952 12.1254Z" fill="white"/>
</svg>
