<svg width="20" height="21" viewBox="0 0 20 21" fill="none" xmlns="http://www.w3.org/2000/svg">
<path fill-rule="evenodd" clip-rule="evenodd" d="M18.3543 4.13901L16.8452 2.62993C16.651 2.4357 16.3352 2.43536 16.141 2.62993L9.94996 8.82097L12.1629 11.034L18.3543 4.84325C18.5486 4.64901 18.5489 4.33325 18.3543 4.13901ZM16.3573 15.0731L15.261 14.5249L14.7128 13.4286C14.5355 13.064 13.9993 13.0643 13.822 13.4286L13.2738 14.5249L12.1774 15.0731C11.8128 15.2504 11.8132 15.787 12.1774 15.9639L13.2738 16.5121L13.822 17.6085C13.9993 17.9731 14.5355 17.9727 14.7128 17.6085L15.261 16.5121L16.3573 15.9639C16.7216 15.7866 16.7216 15.2501 16.3573 15.0731ZM3.04902 8.86613L1.77502 8.22897C1.41079 8.05166 1.41079 7.51543 1.77502 7.33813L3.04902 6.70096L3.68619 5.42696C3.86349 5.06272 4.39972 5.06272 4.57703 5.42696L5.21419 6.70096L6.48819 7.33813C6.85243 7.51543 6.85243 8.05166 6.48819 8.22897L5.21419 8.86613L4.57703 10.1401C4.39972 10.5044 3.86349 10.5044 3.68619 10.1401L3.04902 8.86613ZM5.19882 11.5529C3.15285 11.5529 1.5 13.2091 1.5 15.2517V18.9861C1.5 19.261 1.72312 19.4841 1.99805 19.4841C3.06353 19.4841 4.09747 19.1936 5.00358 18.6421L5.28681 19.2089C5.37114 19.3776 5.54347 19.4841 5.73239 19.4841C7.77869 19.4841 9.43121 17.8276 9.43121 15.7853V14.854L6.1305 11.5533H5.19915L5.19882 11.5529ZM11.952 12.2326C12.0706 12.3508 12.1214 12.5208 12.0878 12.6848C12.0543 12.8488 11.9404 12.985 11.785 13.0471L9.81905 13.8333L7.15053 11.1648L7.93677 9.19883C7.99886 9.04344 8.135 8.92955 8.29902 8.89601C8.46271 8.86248 8.63271 8.91328 8.75124 9.03181L11.952 12.2326Z" fill="black"/>
</svg>
