<svg width="12" height="12" viewBox="0 0 12 12" fill="none" xmlns="http://www.w3.org/2000/svg">
<path fill-rule="evenodd" clip-rule="evenodd" d="M6 12C9.31371 12 12 9.31371 12 6C12 2.68629 9.31371 0 6 0C2.68629 0 0 2.68629 0 6C0 9.31371 2.68629 12 6 12ZM4.36647 3.17234C4.02476 2.83063 3.47074 2.83063 3.12903 3.17234C2.78732 3.51405 2.78732 4.06807 3.12903 4.40978L4.76031 6.04106L3.12903 7.67234C2.78732 8.01405 2.78732 8.56807 3.12903 8.90978C3.47074 9.25149 4.02476 9.25149 4.36647 8.90978L5.99775 7.2785L7.62903 8.90978C7.97074 9.25149 8.52476 9.25149 8.86647 8.90978C9.20818 8.56807 9.20818 8.01405 8.86647 7.67234L7.23519 6.04106L8.86647 4.40978C9.20818 4.06807 9.20818 3.51405 8.86647 3.17234C8.52476 2.83063 7.97074 2.83063 7.62903 3.17234L5.99775 4.80362L4.36647 3.17234Z" fill="#1AC6FF"/>
</svg>
