<svg width="20" height="20" viewBox="0 0 20 20" fill="none" xmlns="http://www.w3.org/2000/svg">
<path d="M10 1.5C5.30596 1.5 1.5 5.30596 1.5 10C1.5 14.694 5.30596 18.5 10 18.5C10.784 18.5 11.4167 17.8674 11.4167 17.0833C11.4167 16.715 11.2799 16.3843 11.0483 16.1342C10.8265 15.884 10.6942 15.5582 10.6942 15.1943C10.6942 14.4103 11.3268 13.7776 12.1108 13.7776H13.7776C16.3843 13.7776 18.5 11.6619 18.5 9.05526C18.5 4.88096 14.694 1.5 10 1.5ZM4.8057 10C4.02167 10 3.38904 9.36737 3.38904 8.58333C3.38904 7.7993 4.02167 7.16667 4.8057 7.16667C5.58974 7.16667 6.22237 7.7993 6.22237 8.58333C6.22237 9.36737 5.58974 10 4.8057 10ZM7.63904 6.22237C6.855 6.22237 6.22237 5.58974 6.22237 4.8057C6.22237 4.02167 6.855 3.38904 7.63904 3.38904C8.42307 3.38904 9.0557 4.02167 9.0557 4.8057C9.0557 5.58974 8.42307 6.22237 7.63904 6.22237ZM12.3614 6.22237C11.5774 6.22237 10.9447 5.58974 10.9447 4.8057C10.9447 4.02167 11.5774 3.38904 12.3614 3.38904C13.1454 3.38904 13.7781 4.02167 13.7781 4.8057C13.7781 5.58974 13.1454 6.22237 12.3614 6.22237ZM15.1947 10C14.4107 10 13.7781 9.36737 13.7781 8.58333C13.7781 7.7993 14.4107 7.16667 15.1947 7.16667C15.9788 7.16667 16.6114 7.7993 16.6114 8.58333C16.6114 9.36737 15.9788 10 15.1947 10Z" fill="white"/>
</svg>
