<svg width="20" height="20" viewBox="0 0 20 20" fill="none" xmlns="http://www.w3.org/2000/svg">
<path d="M5.84615 7.19231C5.10269 7.19231 4.5 6.58961 4.5 5.84615H3.5C3.5 7.1419 4.55041 8.19231 5.84615 8.19231V7.19231ZM4.5 5.84615C4.5 5.10269 5.10269 4.5 5.84615 4.5V3.5C4.55041 3.5 3.5 4.55041 3.5 5.84615H4.5ZM5.84615 4.5C6.58961 4.5 7.19231 5.10269 7.19231 5.84615H8.19231C8.19231 4.55041 7.1419 3.5 5.84615 3.5V4.5ZM7.19231 14.1538C7.19231 14.8973 6.58961 15.5 5.84615 15.5V16.5C7.1419 16.5 8.19231 15.4496 8.19231 14.1538H7.19231ZM5.84615 15.5C5.10269 15.5 4.5 14.8973 4.5 14.1538H3.5C3.5 15.4496 4.55041 16.5 5.84615 16.5V15.5ZM4.5 14.1538C4.5 13.4104 5.10269 12.8077 5.84615 12.8077V11.8077C4.55041 11.8077 3.5 12.8581 3.5 14.1538H4.5ZM5.84615 8.19231H12.3077V7.19231H5.84615V8.19231ZM12.3077 8.19231H14.1538V7.19231H12.3077V8.19231ZM11.8077 5.84615V7.69231H12.8077V5.84615H11.8077ZM11.8077 7.69231V12.3077H12.8077V7.69231H11.8077ZM11.8077 12.3077V14.1538H12.8077V12.3077H11.8077ZM14.1538 11.8077H12.3077V12.8077H14.1538V11.8077ZM12.3077 11.8077H5.84615V12.8077H12.3077V11.8077ZM15.5 5.84615C15.5 6.58961 14.8973 7.19231 14.1538 7.19231V8.19231C15.4496 8.19231 16.5 7.1419 16.5 5.84615H15.5ZM12.8077 5.84615C12.8077 5.10269 13.4104 4.5 14.1538 4.5V3.5C12.8581 3.5 11.8077 4.55041 11.8077 5.84615H12.8077ZM14.1538 4.5C14.8973 4.5 15.5 5.10269 15.5 5.84615H16.5C16.5 4.55041 15.4496 3.5 14.1538 3.5V4.5ZM15.5 14.1538C15.5 14.8973 14.8973 15.5 14.1538 15.5V16.5C15.4496 16.5 16.5 15.4496 16.5 14.1538H15.5ZM14.1538 15.5C13.4104 15.5 12.8077 14.8973 12.8077 14.1538H11.8077C11.8077 15.4496 12.8581 16.5 14.1538 16.5V15.5ZM14.1538 12.8077C14.8973 12.8077 15.5 13.4104 15.5 14.1538H16.5C16.5 12.8581 15.4496 11.8077 14.1538 11.8077V12.8077ZM7.19231 5.84615V14.1538H8.19231V5.84615H7.19231Z" fill="black"/>
</svg>
